<?xml version="1.0" encoding="UTF-8" standalone="no"?>
<!DOCTYPE svg PUBLIC "-//W3C//DTD SVG 1.1//EN"
 "http://www.w3.org/Graphics/SVG/1.1/DTD/svg11.dtd">
<!-- Generated by graphviz version 2.38.0 (20140413.2041)
 -->
<!-- Title: G Pages: 1 -->
<svg width="1299pt" height="1174pt"
 viewBox="0.00 0.00 1299.32 1174.00" xmlns="http://www.w3.org/2000/svg" xmlns:xlink="http://www.w3.org/1999/xlink">
<g id="graph0" class="graph" transform="scale(1 1) rotate(0) translate(4 1170)">
<title>G</title>
<polygon fill="white" stroke="none" points="-4,4 -4,-1170 1295.32,-1170 1295.32,4 -4,4"/>
<g id="clust1" class="cluster"><title>cluster_Global</title>
<path fill="none" stroke="gray" d="M615.895,-152C615.895,-152 1271.32,-152 1271.32,-152 1277.32,-152 1283.32,-158 1283.32,-164 1283.32,-164 1283.32,-1146 1283.32,-1146 1283.32,-1152 1277.32,-1158 1271.32,-1158 1271.32,-1158 615.895,-1158 615.895,-1158 609.895,-1158 603.895,-1152 603.895,-1146 603.895,-1146 603.895,-164 603.895,-164 603.895,-158 609.895,-152 615.895,-152"/>
<text text-anchor="middle" x="943.609" y="-1145.2" font-family="Times New Roman,serif" font-size="11.00" fill="gray">Global</text>
</g>
<g id="clust2" class="cluster"><title>cluster_\Slothsoft</title>
<path fill="none" stroke="gray" d="M623.895,-160C623.895,-160 1263.32,-160 1263.32,-160 1269.32,-160 1275.32,-166 1275.32,-172 1275.32,-172 1275.32,-1118 1275.32,-1118 1275.32,-1124 1269.32,-1130 1263.32,-1130 1263.32,-1130 623.895,-1130 623.895,-1130 617.895,-1130 611.895,-1124 611.895,-1118 611.895,-1118 611.895,-172 611.895,-172 611.895,-166 617.895,-160 623.895,-160"/>
<text text-anchor="middle" x="943.609" y="-1117.2" font-family="Times New Roman,serif" font-size="11.00" fill="gray">Slothsoft</text>
</g>
<g id="clust3" class="cluster"><title>cluster_\Slothsoft\Schema</title>
<path fill="none" stroke="gray" d="M631.895,-168C631.895,-168 1255.32,-168 1255.32,-168 1261.32,-168 1267.32,-174 1267.32,-180 1267.32,-180 1267.32,-1090 1267.32,-1090 1267.32,-1096 1261.32,-1102 1255.32,-1102 1255.32,-1102 631.895,-1102 631.895,-1102 625.895,-1102 619.895,-1096 619.895,-1090 619.895,-1090 619.895,-180 619.895,-180 619.895,-174 625.895,-168 631.895,-168"/>
<text text-anchor="middle" x="943.609" y="-1089.2" font-family="Times New Roman,serif" font-size="11.00" fill="gray">Schema</text>
</g>
<g id="clust4" class="cluster"><title>cluster_\Slothsoft\Schema\Documentation</title>
<path fill="none" stroke="gray" d="M653.395,-678C653.395,-678 1179.82,-678 1179.82,-678 1185.82,-678 1191.82,-684 1191.82,-690 1191.82,-690 1191.82,-1062 1191.82,-1062 1191.82,-1068 1185.82,-1074 1179.82,-1074 1179.82,-1074 653.395,-1074 653.395,-1074 647.395,-1074 641.395,-1068 641.395,-1062 641.395,-1062 641.395,-690 641.395,-690 641.395,-684 647.395,-678 653.395,-678"/>
<text text-anchor="middle" x="916.609" y="-1061.2" font-family="Times New Roman,serif" font-size="11.00" fill="gray">Documentation</text>
</g>
<g id="clust6" class="cluster"><title>cluster_\Slothsoft\Schema\Assets</title>
<path fill="none" stroke="gray" d="M639.895,-544C639.895,-544 1183.32,-544 1183.32,-544 1189.32,-544 1195.32,-550 1195.32,-556 1195.32,-556 1195.32,-658 1195.32,-658 1195.32,-664 1189.32,-670 1183.32,-670 1183.32,-670 639.895,-670 639.895,-670 633.895,-670 627.895,-664 627.895,-658 627.895,-658 627.895,-556 627.895,-556 627.895,-550 633.895,-544 639.895,-544"/>
<text text-anchor="middle" x="911.609" y="-657.2" font-family="Times New Roman,serif" font-size="11.00" fill="gray">Assets</text>
</g>
<g id="clust7" class="cluster"><title>cluster_\Slothsoft\Schema\Exceptions</title>
<path fill="none" stroke="gray" d="M1016.32,-276C1016.32,-276 1247.32,-276 1247.32,-276 1253.32,-276 1259.32,-282 1259.32,-288 1259.32,-288 1259.32,-336 1259.32,-336 1259.32,-342 1253.32,-348 1247.32,-348 1247.32,-348 1016.32,-348 1016.32,-348 1010.32,-348 1004.32,-342 1004.32,-336 1004.32,-336 1004.32,-288 1004.32,-288 1004.32,-282 1010.32,-276 1016.32,-276"/>
<text text-anchor="middle" x="1131.82" y="-335.2" font-family="Times New Roman,serif" font-size="11.00" fill="gray">Exceptions</text>
</g>
<g id="clust5" class="cluster"><title>cluster_\Slothsoft\Schema\Executables</title>
<path fill="none" stroke="gray" d="M1049.82,-356C1049.82,-356 1213.82,-356 1213.82,-356 1219.82,-356 1225.82,-362 1225.82,-368 1225.82,-368 1225.82,-524 1225.82,-524 1225.82,-530 1219.82,-536 1213.82,-536 1213.82,-536 1049.82,-536 1049.82,-536 1043.82,-536 1037.82,-530 1037.82,-524 1037.82,-524 1037.82,-368 1037.82,-368 1037.82,-362 1043.82,-356 1049.82,-356"/>
<text text-anchor="middle" x="1131.82" y="-523.2" font-family="Times New Roman,serif" font-size="11.00" fill="gray">Executables</text>
</g>
<!-- \\Slothsoft\\Schema\\Documentation\\XSDAnnotation -->
<g id="node1" class="node"><title>\\Slothsoft\\Schema\\Documentation\\XSDAnnotation</title>
<polygon fill="none" stroke="black" points="1183.82,-1046 1079.82,-1046 1079.82,-1010 1183.82,-1010 1183.82,-1046"/>
<text text-anchor="middle" x="1131.82" y="-1025.2" font-family="Courier,monospace" font-size="11.00">XSDAnnotation</text>
</g>
<!-- \\Slothsoft\\Schema\\Documentation\\XSDNode -->
<g id="node8" class="node"><title>\\Slothsoft\\Schema\\Documentation\\XSDNode</title>
<polygon fill="none" stroke="black" points="733.395,-911 649.395,-911 649.395,-875 733.395,-875 733.395,-911"/>
<text text-anchor="start" x="657.395" y="-896.2" font-family="Courier,monospace" font-size="11.00">«abstract»</text>
<text text-anchor="start" x="667.395" y="-884.2" font-family="Courier,monospace" font-size="11.00">XSDNode</text>
</g>
<!-- \\Slothsoft\\Schema\\Documentation\\XSDAnnotation&#45;&gt;\\Slothsoft\\Schema\\Documentation\\XSDNode -->
<g id="edge1" class="edge"><title>\\Slothsoft\\Schema\\Documentation\\XSDAnnotation&#45;&gt;\\Slothsoft\\Schema\\Documentation\\XSDNode</title>
<path fill="none" stroke="black" d="M1079.69,-1018.58C1056.52,-1013.93 1028.88,-1007.84 1004.32,-1001 910.787,-974.932 804.424,-936.061 743.188,-912.753"/>
<polygon fill="none" stroke="black" points="744.347,-909.449 733.756,-909.15 741.849,-915.988 744.347,-909.449"/>
</g>
<!-- \\Slothsoft\\Schema\\Documentation\\XSDCategory -->
<g id="node2" class="node"><title>\\Slothsoft\\Schema\\Documentation\\XSDCategory</title>
<polygon fill="none" stroke="black" points="1177.32,-992 1086.32,-992 1086.32,-956 1177.32,-956 1177.32,-992"/>
<text text-anchor="middle" x="1131.82" y="-971.2" font-family="Courier,monospace" font-size="11.00">XSDCategory</text>
</g>
<!-- \\Slothsoft\\Schema\\Documentation\\XSDCategory&#45;&gt;\\Slothsoft\\Schema\\Documentation\\XSDNode -->
<g id="edge3" class="edge"><title>\\Slothsoft\\Schema\\Documentation\\XSDCategory&#45;&gt;\\Slothsoft\\Schema\\Documentation\\XSDNode</title>
<path fill="none" stroke="black" d="M1085.96,-965.712C1003.88,-950.547 830.015,-918.425 743.505,-902.443"/>
<polygon fill="none" stroke="black" points="744.121,-898.997 733.651,-900.622 742.849,-905.881 744.121,-898.997"/>
</g>
<!-- \\Slothsoft\\Schema\\Documentation\\XSDGroup -->
<g id="node3" class="node"><title>\\Slothsoft\\Schema\\Documentation\\XSDGroup</title>
<polygon fill="none" stroke="black" points="1167.32,-938 1096.32,-938 1096.32,-902 1167.32,-902 1167.32,-938"/>
<text text-anchor="middle" x="1131.82" y="-917.2" font-family="Courier,monospace" font-size="11.00">XSDGroup</text>
</g>
<!-- \\Slothsoft\\Schema\\Documentation\\XSDGroup&#45;&gt;\\Slothsoft\\Schema\\Documentation\\XSDNode -->
<g id="edge5" class="edge"><title>\\Slothsoft\\Schema\\Documentation\\XSDGroup&#45;&gt;\\Slothsoft\\Schema\\Documentation\\XSDNode</title>
<path fill="none" stroke="black" d="M1096.05,-917.859C1019.02,-913.115 833.684,-901.701 743.461,-896.145"/>
<polygon fill="none" stroke="black" points="743.661,-892.651 733.465,-895.529 743.231,-899.637 743.661,-892.651"/>
</g>
<!-- \\Slothsoft\\Schema\\Documentation\\XSDElement -->
<g id="node4" class="node"><title>\\Slothsoft\\Schema\\Documentation\\XSDElement</title>
<polygon fill="none" stroke="black" points="1173.82,-884 1089.82,-884 1089.82,-848 1173.82,-848 1173.82,-884"/>
<text text-anchor="middle" x="1131.82" y="-863.2" font-family="Courier,monospace" font-size="11.00">XSDElement</text>
</g>
<!-- \\Slothsoft\\Schema\\Documentation\\XSDElement&#45;&gt;\\Slothsoft\\Schema\\Documentation\\XSDNode -->
<g id="edge6" class="edge"><title>\\Slothsoft\\Schema\\Documentation\\XSDElement&#45;&gt;\\Slothsoft\\Schema\\Documentation\\XSDNode</title>
<path fill="none" stroke="black" d="M1089.58,-868.54C1009.1,-873.496 831.335,-884.444 743.527,-889.851"/>
<polygon fill="none" stroke="black" points="743.297,-886.359 733.531,-890.467 743.727,-893.345 743.297,-886.359"/>
</g>
<!-- \\Slothsoft\\Schema\\Documentation\\XSDAttribute -->
<g id="node5" class="node"><title>\\Slothsoft\\Schema\\Documentation\\XSDAttribute</title>
<polygon fill="none" stroke="black" points="1180.82,-830 1082.82,-830 1082.82,-794 1180.82,-794 1180.82,-830"/>
<text text-anchor="middle" x="1131.82" y="-809.2" font-family="Courier,monospace" font-size="11.00">XSDAttribute</text>
</g>
<!-- \\Slothsoft\\Schema\\Documentation\\XSDAttribute&#45;&gt;\\Slothsoft\\Schema\\Documentation\\XSDNode -->
<g id="edge7" class="edge"><title>\\Slothsoft\\Schema\\Documentation\\XSDAttribute&#45;&gt;\\Slothsoft\\Schema\\Documentation\\XSDNode</title>
<path fill="none" stroke="black" d="M1082.65,-820.9C999.285,-836.302 828.873,-867.786 743.509,-883.557"/>
<polygon fill="none" stroke="black" points="742.73,-880.141 733.532,-885.4 744.001,-887.025 742.73,-880.141"/>
</g>
<!-- \\Slothsoft\\Schema\\Documentation\\XSDFile -->
<g id="node6" class="node"><title>\\Slothsoft\\Schema\\Documentation\\XSDFile</title>
<polygon fill="none" stroke="black" points="1163.82,-776 1099.82,-776 1099.82,-740 1163.82,-740 1163.82,-776"/>
<text text-anchor="middle" x="1131.82" y="-755.2" font-family="Courier,monospace" font-size="11.00">XSDFile</text>
</g>
<!-- \\Slothsoft\\Schema\\Documentation\\XSDType -->
<g id="node7" class="node"><title>\\Slothsoft\\Schema\\Documentation\\XSDType</title>
<polygon fill="none" stroke="black" points="1163.82,-722 1099.82,-722 1099.82,-686 1163.82,-686 1163.82,-722"/>
<text text-anchor="middle" x="1131.82" y="-701.2" font-family="Courier,monospace" font-size="11.00">XSDType</text>
</g>
<!-- \\Slothsoft\\Schema\\Documentation\\XSDType&#45;&gt;\\Slothsoft\\Schema\\Documentation\\XSDNode -->
<g id="edge11" class="edge"><title>\\Slothsoft\\Schema\\Documentation\\XSDType&#45;&gt;\\Slothsoft\\Schema\\Documentation\\XSDNode</title>
<path fill="none" stroke="black" d="M1099.77,-708.241C1073.75,-712.354 1035.92,-719.657 1004.32,-731 899.923,-768.477 786.514,-834.41 729.527,-869.493"/>
<polygon fill="none" stroke="black" points="727.535,-866.61 720.875,-874.85 731.22,-872.561 727.535,-866.61"/>
</g>
<!-- \\Slothsoft\\Schema\\Executables\\SchemaExecutableCreator -->
<g id="node9" class="node"><title>\\Slothsoft\\Schema\\Executables\\SchemaExecutableCreator</title>
<polygon fill="none" stroke="black" points="1217.82,-508 1045.82,-508 1045.82,-472 1217.82,-472 1217.82,-508"/>
<text text-anchor="middle" x="1131.82" y="-487.2" font-family="Courier,monospace" font-size="11.00">SchemaExecutableCreator</text>
</g>
<!-- \\Slothsoft\\Farah\\Module\\Executables\\ExecutableCreator -->
<g id="node18" class="node"><title>\\Slothsoft\\Farah\\Module\\Executables\\ExecutableCreator</title>
<ellipse fill="none" stroke="black" cx="691.395" cy="-126" rx="214.462" ry="18"/>
<text text-anchor="middle" x="691.395" y="-122.3" font-family="Times New Roman,serif" font-size="14.00" fill="gray">\Slothsoft\Farah\Module\Executables\ExecutableCreator</text>
</g>
<!-- \\Slothsoft\\Schema\\Executables\\SchemaExecutableCreator&#45;&gt;\\Slothsoft\\Farah\\Module\\Executables\\ExecutableCreator -->
<g id="edge2" class="edge"><title>\\Slothsoft\\Schema\\Executables\\SchemaExecutableCreator&#45;&gt;\\Slothsoft\\Farah\\Module\\Executables\\ExecutableCreator</title>
<path fill="none" stroke="black" d="M1045.5,-479.3C1031.19,-475.428 1016.91,-470.161 1004.32,-463 863.638,-382.981 749.917,-217.939 708.87,-153.049"/>
<polygon fill="none" stroke="black" points="711.619,-150.844 703.347,-144.224 705.686,-154.557 711.619,-150.844"/>
</g>
<!-- \\Slothsoft\\Schema\\Executables\\SchemaInfo -->
<g id="node10" class="node"><title>\\Slothsoft\\Schema\\Executables\\SchemaInfo</title>
<polygon fill="none" stroke="black" points="1173.82,-454 1089.82,-454 1089.82,-418 1173.82,-418 1173.82,-454"/>
<text text-anchor="middle" x="1131.82" y="-433.2" font-family="Courier,monospace" font-size="11.00">SchemaInfo</text>
</g>
<!-- \\Slothsoft\\Farah\\Module\\Executables\\ExecutableDOMWriterBase -->
<g id="node20" class="node"><title>\\Slothsoft\\Farah\\Module\\Executables\\ExecutableDOMWriterBase</title>
<ellipse fill="none" stroke="black" cx="691.395" cy="-72" rx="248.856" ry="18"/>
<text text-anchor="middle" x="691.395" y="-68.3" font-family="Times New Roman,serif" font-size="14.00" fill="gray">\Slothsoft\Farah\Module\Executables\ExecutableDOMWriterBase</text>
</g>
<!-- \\Slothsoft\\Schema\\Executables\\SchemaInfo&#45;&gt;\\Slothsoft\\Farah\\Module\\Executables\\ExecutableDOMWriterBase -->
<g id="edge9" class="edge"><title>\\Slothsoft\\Schema\\Executables\\SchemaInfo&#45;&gt;\\Slothsoft\\Farah\\Module\\Executables\\ExecutableDOMWriterBase</title>
<path fill="none" stroke="black" d="M1089.79,-438.123C1061.98,-437.246 1026.4,-431.225 1004.32,-409 905.178,-309.19 1044.42,-193.636 940.323,-99 934.706,-93.8939 928.697,-89.3605 922.373,-85.3453"/>
<polygon fill="none" stroke="black" points="923.962,-82.2197 913.564,-80.1862 920.425,-88.2601 923.962,-82.2197"/>
</g>
<!-- \\Slothsoft\\Schema\\Executables\\SchemaManifest -->
<g id="node11" class="node"><title>\\Slothsoft\\Schema\\Executables\\SchemaManifest</title>
<polygon fill="none" stroke="black" points="1187.32,-400 1076.32,-400 1076.32,-364 1187.32,-364 1187.32,-400"/>
<text text-anchor="middle" x="1131.82" y="-379.2" font-family="Courier,monospace" font-size="11.00">SchemaManifest</text>
</g>
<!-- \\Slothsoft\\Schema\\Executables\\SchemaManifest&#45;&gt;\\Slothsoft\\Farah\\Module\\Executables\\ExecutableDOMWriterBase -->
<g id="edge13" class="edge"><title>\\Slothsoft\\Schema\\Executables\\SchemaManifest&#45;&gt;\\Slothsoft\\Farah\\Module\\Executables\\ExecutableDOMWriterBase</title>
<path fill="none" stroke="black" d="M1076.08,-381.463C1051.17,-378.393 1023.13,-370.534 1004.32,-352 921.699,-270.599 1027.85,-175.109 940.323,-99 934.483,-93.9215 928.249,-89.4206 921.706,-85.4413"/>
<polygon fill="none" stroke="black" points="923.033,-82.1728 912.6,-80.3331 919.609,-88.2779 923.033,-82.1728"/>
</g>
<!-- \\Slothsoft\\Schema\\Assets\\SchemaManifest -->
<g id="node12" class="node"><title>\\Slothsoft\\Schema\\Assets\\SchemaManifest</title>
<polygon fill="none" stroke="black" points="1187.32,-642 1076.32,-642 1076.32,-606 1187.32,-606 1187.32,-642"/>
<text text-anchor="middle" x="1131.82" y="-621.2" font-family="Courier,monospace" font-size="11.00">SchemaManifest</text>
</g>
<!-- \\Slothsoft\\Schema\\Assets\\AbstractSchema -->
<g id="node13" class="node"><title>\\Slothsoft\\Schema\\Assets\\AbstractSchema</title>
<polygon fill="none" stroke="black" points="746.895,-615 635.895,-615 635.895,-579 746.895,-579 746.895,-615"/>
<text text-anchor="middle" x="691.395" y="-594.2" font-family="Courier,monospace" font-size="11.00">AbstractSchema</text>
</g>
<!-- \\Slothsoft\\Schema\\Assets\\SchemaManifest&#45;&gt;\\Slothsoft\\Schema\\Assets\\AbstractSchema -->
<g id="edge4" class="edge"><title>\\Slothsoft\\Schema\\Assets\\SchemaManifest&#45;&gt;\\Slothsoft\\Schema\\Assets\\AbstractSchema</title>
<path fill="none" stroke="black" d="M1076.18,-620.635C995.229,-615.65 843.712,-606.319 757.247,-600.994"/>
<polygon fill="none" stroke="black" points="757.23,-597.486 747.034,-600.365 756.8,-604.473 757.23,-597.486"/>
</g>
<!-- \\Slothsoft\\Farah\\Module\\Node\\Asset\\AssetBase -->
<g id="node19" class="node"><title>\\Slothsoft\\Farah\\Module\\Node\\Asset\\AssetBase</title>
<ellipse fill="none" stroke="black" cx="185.234" cy="-597" rx="185.467" ry="18"/>
<text text-anchor="middle" x="185.234" y="-593.3" font-family="Times New Roman,serif" font-size="14.00" fill="gray">\Slothsoft\Farah\Module\Node\Asset\AssetBase</text>
</g>
<!-- \\Slothsoft\\Schema\\Assets\\AbstractSchema&#45;&gt;\\Slothsoft\\Farah\\Module\\Node\\Asset\\AssetBase -->
<g id="edge8" class="edge"><title>\\Slothsoft\\Schema\\Assets\\AbstractSchema&#45;&gt;\\Slothsoft\\Farah\\Module\\Node\\Asset\\AssetBase</title>
<path fill="none" stroke="black" d="M635.481,-597C574.415,-597 472.306,-597 380.854,-597"/>
<polygon fill="none" stroke="black" points="380.617,-593.5 370.617,-597 380.617,-600.5 380.617,-593.5"/>
</g>
<!-- \\Slothsoft\\Schema\\Assets\\SchemaInfo -->
<g id="node14" class="node"><title>\\Slothsoft\\Schema\\Assets\\SchemaInfo</title>
<polygon fill="none" stroke="black" points="1173.82,-588 1089.82,-588 1089.82,-552 1173.82,-552 1173.82,-588"/>
<text text-anchor="middle" x="1131.82" y="-567.2" font-family="Courier,monospace" font-size="11.00">SchemaInfo</text>
</g>
<!-- \\Slothsoft\\Schema\\Assets\\SchemaInfo&#45;&gt;\\Slothsoft\\Schema\\Assets\\AbstractSchema -->
<g id="edge10" class="edge"><title>\\Slothsoft\\Schema\\Assets\\SchemaInfo&#45;&gt;\\Slothsoft\\Schema\\Assets\\AbstractSchema</title>
<path fill="none" stroke="black" d="M1089.58,-572.54C1013.12,-577.249 848.865,-587.364 757.347,-593"/>
<polygon fill="none" stroke="black" points="756.865,-589.523 747.099,-593.631 757.295,-596.51 756.865,-589.523"/>
</g>
<!-- \\Slothsoft\\Schema\\Exceptions\\SchemaVersioningNotFoundException -->
<g id="node15" class="node"><title>\\Slothsoft\\Schema\\Exceptions\\SchemaVersioningNotFoundException</title>
<polygon fill="none" stroke="black" points="1251.32,-320 1012.32,-320 1012.32,-284 1251.32,-284 1251.32,-320"/>
<text text-anchor="middle" x="1131.82" y="-299.2" font-family="Courier,monospace" font-size="11.00">SchemaVersioningNotFoundException</text>
</g>
<!-- \\UnexpectedValueException -->
<g id="node21" class="node"><title>\\UnexpectedValueException</title>
<ellipse fill="none" stroke="black" cx="691.395" cy="-18" rx="113.98" ry="18"/>
<text text-anchor="middle" x="691.395" y="-14.3" font-family="Times New Roman,serif" font-size="14.00" fill="gray">\UnexpectedValueException</text>
</g>
<!-- \\Slothsoft\\Schema\\Exceptions\\SchemaVersioningNotFoundException&#45;&gt;\\UnexpectedValueException -->
<g id="edge12" class="edge"><title>\\Slothsoft\\Schema\\Exceptions\\SchemaVersioningNotFoundException&#45;&gt;\\UnexpectedValueException</title>
<path fill="none" stroke="black" d="M1012.15,-286.203C1009.41,-284.314 1006.8,-282.251 1004.32,-280 924.279,-207.126 1022.65,-115.288 940.323,-45 897.49,-8.42991 834.175,-2.05268 782.25,-4.62706"/>
<polygon fill="none" stroke="black" points="781.794,-1.14843 772.027,-5.25499 782.223,-8.13527 781.794,-1.14843"/>
</g>
<!-- \\Slothsoft\\Schema\\DataDocument -->
<g id="node16" class="node"><title>\\Slothsoft\\Schema\\DataDocument</title>
<polygon fill="none" stroke="black" points="1180.82,-266 1082.82,-266 1082.82,-230 1180.82,-230 1180.82,-266"/>
<text text-anchor="middle" x="1131.82" y="-245.2" font-family="Courier,monospace" font-size="11.00">DataDocument</text>
</g>
<!-- \\Slothsoft\\Schema\\DataElement -->
<g id="node17" class="node"><title>\\Slothsoft\\Schema\\DataElement</title>
<polygon fill="none" stroke="black" points="1177.32,-212 1086.32,-212 1086.32,-176 1177.32,-176 1177.32,-212"/>
<text text-anchor="middle" x="1131.82" y="-191.2" font-family="Courier,monospace" font-size="11.00">DataElement</text>
</g>
</g>
</svg>
