<?xml version="1.0" encoding="UTF-8" standalone="no"?>
<!DOCTYPE svg PUBLIC "-//W3C//DTD SVG 1.1//EN"
 "http://www.w3.org/Graphics/SVG/1.1/DTD/svg11.dtd">
<!-- Generated by graphviz version 2.38.0 (20140413.2041)
 -->
<!-- Title: G Pages: 1 -->
<svg width="1057pt" height="1047pt"
 viewBox="0.00 0.00 1057.04 1047.32" xmlns="http://www.w3.org/2000/svg" xmlns:xlink="http://www.w3.org/1999/xlink">
<g id="graph0" class="graph" transform="scale(1 1) rotate(0) translate(4 1043.32)">
<title>G</title>
<polygon fill="white" stroke="none" points="-4,4 -4,-1043.32 1053.04,-1043.32 1053.04,4 -4,4"/>
<g id="clust1" class="cluster"><title>cluster_Global</title>
<path fill="none" stroke="gray" d="M287.019,-159.316C287.019,-159.316 1029.04,-159.316 1029.04,-159.316 1035.04,-159.316 1041.04,-165.316 1041.04,-171.316 1041.04,-171.316 1041.04,-1019.32 1041.04,-1019.32 1041.04,-1025.32 1035.04,-1031.32 1029.04,-1031.32 1029.04,-1031.32 287.019,-1031.32 287.019,-1031.32 281.019,-1031.32 275.019,-1025.32 275.019,-1019.32 275.019,-1019.32 275.019,-171.316 275.019,-171.316 275.019,-165.316 281.019,-159.316 287.019,-159.316"/>
<text text-anchor="middle" x="658.029" y="-1018.52" font-family="Times New Roman,serif" font-size="11.00" fill="gray">Global</text>
</g>
<g id="clust2" class="cluster"><title>cluster_\Slothsoft</title>
<path fill="none" stroke="gray" d="M295.019,-167.316C295.019,-167.316 1021.04,-167.316 1021.04,-167.316 1027.04,-167.316 1033.04,-173.316 1033.04,-179.316 1033.04,-179.316 1033.04,-991.316 1033.04,-991.316 1033.04,-997.316 1027.04,-1003.32 1021.04,-1003.32 1021.04,-1003.32 295.019,-1003.32 295.019,-1003.32 289.019,-1003.32 283.019,-997.316 283.019,-991.316 283.019,-991.316 283.019,-179.316 283.019,-179.316 283.019,-173.316 289.019,-167.316 295.019,-167.316"/>
<text text-anchor="middle" x="658.029" y="-990.516" font-family="Times New Roman,serif" font-size="11.00" fill="gray">Slothsoft</text>
</g>
<g id="clust3" class="cluster"><title>cluster_\Slothsoft\Schema</title>
<path fill="none" stroke="gray" d="M303.019,-175.316C303.019,-175.316 1013.04,-175.316 1013.04,-175.316 1019.04,-175.316 1025.04,-181.316 1025.04,-187.316 1025.04,-187.316 1025.04,-963.316 1025.04,-963.316 1025.04,-969.316 1019.04,-975.316 1013.04,-975.316 1013.04,-975.316 303.019,-975.316 303.019,-975.316 297.019,-975.316 291.019,-969.316 291.019,-963.316 291.019,-963.316 291.019,-187.316 291.019,-187.316 291.019,-181.316 297.019,-175.316 303.019,-175.316"/>
<text text-anchor="middle" x="658.029" y="-962.516" font-family="Times New Roman,serif" font-size="11.00" fill="gray">Schema</text>
</g>
<g id="clust4" class="cluster"><title>cluster_\Slothsoft\Schema\Assets</title>
<path fill="none" stroke="gray" d="M814.538,-363.316C814.538,-363.316 964.538,-363.316 964.538,-363.316 970.538,-363.316 976.538,-369.316 976.538,-375.316 976.538,-375.316 976.538,-531.316 976.538,-531.316 976.538,-537.316 970.538,-543.316 964.538,-543.316 964.538,-543.316 814.538,-543.316 814.538,-543.316 808.538,-543.316 802.538,-537.316 802.538,-531.316 802.538,-531.316 802.538,-375.316 802.538,-375.316 802.538,-369.316 808.538,-363.316 814.538,-363.316"/>
<text text-anchor="middle" x="889.538" y="-530.516" font-family="Times New Roman,serif" font-size="11.00" fill="gray">Assets</text>
</g>
<g id="clust5" class="cluster"><title>cluster_\Slothsoft\Schema\Documentation</title>
<path fill="none" stroke="gray" d="M311.019,-551.316C311.019,-551.316 937.538,-551.316 937.538,-551.316 943.538,-551.316 949.538,-557.316 949.538,-563.316 949.538,-563.316 949.538,-935.316 949.538,-935.316 949.538,-941.316 943.538,-947.316 937.538,-947.316 937.538,-947.316 311.019,-947.316 311.019,-947.316 305.019,-947.316 299.019,-941.316 299.019,-935.316 299.019,-935.316 299.019,-563.316 299.019,-563.316 299.019,-557.316 305.019,-551.316 311.019,-551.316"/>
<text text-anchor="middle" x="624.279" y="-934.516" font-family="Times New Roman,serif" font-size="11.00" fill="gray">Documentation</text>
</g>
<g id="clust6" class="cluster"><title>cluster_\Slothsoft\Schema\Exceptions</title>
<path fill="none" stroke="gray" d="M774.038,-283.316C774.038,-283.316 1005.04,-283.316 1005.04,-283.316 1011.04,-283.316 1017.04,-289.316 1017.04,-295.316 1017.04,-295.316 1017.04,-343.316 1017.04,-343.316 1017.04,-349.316 1011.04,-355.316 1005.04,-355.316 1005.04,-355.316 774.038,-355.316 774.038,-355.316 768.038,-355.316 762.038,-349.316 762.038,-343.316 762.038,-343.316 762.038,-295.316 762.038,-295.316 762.038,-289.316 768.038,-283.316 774.038,-283.316"/>
<text text-anchor="middle" x="889.538" y="-342.516" font-family="Times New Roman,serif" font-size="11.00" fill="gray">Exceptions</text>
</g>
<!-- \\Slothsoft\\Schema\\Assets\\InfoBuilder -->
<g id="node1" class="node"><title>\\Slothsoft\\Schema\\Assets\\InfoBuilder</title>
<polygon fill="none" stroke="black" points="935.038,-515.316 844.038,-515.316 844.038,-479.316 935.038,-479.316 935.038,-515.316"/>
<text text-anchor="middle" x="889.538" y="-494.516" font-family="Courier,monospace" font-size="11.00">InfoBuilder</text>
</g>
<!-- \\Slothsoft\\Farah\\Module\\Asset\\ExecutableBuilderStrategy\\ExecutableBuilderStrategyInterface -->
<g id="node15" class="node"><title>\\Slothsoft\\Farah\\Module\\Asset\\ExecutableBuilderStrategy\\ExecutableBuilderStrategyInterface</title>
<ellipse fill="none" stroke="black" cx="349.019" cy="-133.316" rx="349.038" ry="18"/>
<text text-anchor="middle" x="349.019" y="-129.616" font-family="Times New Roman,serif" font-size="14.00" fill="gray">\Slothsoft\Farah\Module\Asset\ExecutableBuilderStrategy\ExecutableBuilderStrategyInterface</text>
</g>
<!-- \\Slothsoft\\Schema\\Assets\\InfoBuilder&#45;&gt;\\Slothsoft\\Farah\\Module\\Asset\\ExecutableBuilderStrategy\\ExecutableBuilderStrategyInterface -->
<g id="edge1" class="edge"><title>\\Slothsoft\\Schema\\Assets\\InfoBuilder&#45;&gt;\\Slothsoft\\Farah\\Module\\Asset\\ExecutableBuilderStrategy\\ExecutableBuilderStrategyInterface</title>
<path fill="none" stroke="black" stroke-dasharray="1,5" d="M843.833,-493.024C818.831,-489.357 787.643,-482.62 762.038,-470.316 591.898,-388.564 430.956,-222.721 372.854,-159.028"/>
<polygon fill="none" stroke="black" points="375.279,-156.491 365.971,-151.431 370.091,-161.191 375.279,-156.491"/>
</g>
<!-- \\Slothsoft\\Schema\\Assets\\ManifestBuilder -->
<g id="node2" class="node"><title>\\Slothsoft\\Schema\\Assets\\ManifestBuilder</title>
<polygon fill="none" stroke="black" points="948.538,-461.316 830.538,-461.316 830.538,-425.316 948.538,-425.316 948.538,-461.316"/>
<text text-anchor="middle" x="889.538" y="-440.516" font-family="Courier,monospace" font-size="11.00">ManifestBuilder</text>
</g>
<!-- \\Slothsoft\\Schema\\Assets\\ManifestBuilder&#45;&gt;\\Slothsoft\\Farah\\Module\\Asset\\ExecutableBuilderStrategy\\ExecutableBuilderStrategyInterface -->
<g id="edge2" class="edge"><title>\\Slothsoft\\Schema\\Assets\\ManifestBuilder&#45;&gt;\\Slothsoft\\Farah\\Module\\Asset\\ExecutableBuilderStrategy\\ExecutableBuilderStrategyInterface</title>
<path fill="none" stroke="black" stroke-dasharray="1,5" d="M830.399,-435.821C808.394,-431.727 783.494,-425.542 762.038,-416.316 602.634,-347.778 440.888,-213.663 377.701,-158.219"/>
<polygon fill="none" stroke="black" points="379.955,-155.541 370.142,-151.548 375.324,-160.79 379.955,-155.541"/>
</g>
<!-- \\Slothsoft\\Schema\\Assets\\SchemaParameterFilter -->
<g id="node3" class="node"><title>\\Slothsoft\\Schema\\Assets\\SchemaParameterFilter</title>
<polygon fill="none" stroke="black" points="968.538,-407.316 810.538,-407.316 810.538,-371.316 968.538,-371.316 968.538,-407.316"/>
<text text-anchor="middle" x="889.538" y="-386.516" font-family="Courier,monospace" font-size="11.00">SchemaParameterFilter</text>
</g>
<!-- \\Slothsoft\\Farah\\Module\\Asset\\ParameterFilterStrategy\\AbstractMapParameterFilter -->
<g id="node16" class="node"><title>\\Slothsoft\\Farah\\Module\\Asset\\ParameterFilterStrategy\\AbstractMapParameterFilter</title>
<ellipse fill="none" stroke="black" cx="349.019" cy="-79.3164" rx="313.844" ry="18"/>
<text text-anchor="middle" x="349.019" y="-75.6164" font-family="Times New Roman,serif" font-size="14.00" fill="gray">\Slothsoft\Farah\Module\Asset\ParameterFilterStrategy\AbstractMapParameterFilter</text>
</g>
<!-- \\Slothsoft\\Schema\\Assets\\SchemaParameterFilter&#45;&gt;\\Slothsoft\\Farah\\Module\\Asset\\ParameterFilterStrategy\\AbstractMapParameterFilter -->
<g id="edge3" class="edge"><title>\\Slothsoft\\Schema\\Assets\\SchemaParameterFilter&#45;&gt;\\Slothsoft\\Farah\\Module\\Asset\\ParameterFilterStrategy\\AbstractMapParameterFilter</title>
<path fill="none" stroke="black" d="M810.275,-384.414C792.508,-379.862 775.062,-372.147 762.038,-359.316 679.414,-277.916 786.732,-181.057 698.038,-106.316 626.412,-45.9587 514.416,-48.6413 436.906,-60.2441"/>
<polygon fill="none" stroke="black" points="436.014,-56.8413 426.681,-61.8559 437.104,-63.756 436.014,-56.8413"/>
</g>
<!-- \\Slothsoft\\Schema\\Documentation\\XSDAnnotation -->
<g id="node4" class="node"><title>\\Slothsoft\\Schema\\Documentation\\XSDAnnotation</title>
<polygon fill="none" stroke="black" points="941.538,-919.316 837.538,-919.316 837.538,-883.316 941.538,-883.316 941.538,-919.316"/>
<text text-anchor="middle" x="889.538" y="-898.516" font-family="Courier,monospace" font-size="11.00">XSDAnnotation</text>
</g>
<!-- \\Slothsoft\\Schema\\Documentation\\XSDNode -->
<g id="node10" class="node"><title>\\Slothsoft\\Schema\\Documentation\\XSDNode</title>
<polygon fill="none" stroke="black" points="391.019,-784.316 307.019,-784.316 307.019,-748.316 391.019,-748.316 391.019,-784.316"/>
<text text-anchor="start" x="315.019" y="-769.516" font-family="Courier,monospace" font-size="11.00">«abstract»</text>
<text text-anchor="start" x="325.019" y="-757.516" font-family="Courier,monospace" font-size="11.00">XSDNode</text>
</g>
<!-- \\Slothsoft\\Schema\\Documentation\\XSDAnnotation&#45;&gt;\\Slothsoft\\Schema\\Documentation\\XSDNode -->
<g id="edge4" class="edge"><title>\\Slothsoft\\Schema\\Documentation\\XSDAnnotation&#45;&gt;\\Slothsoft\\Schema\\Documentation\\XSDNode</title>
<path fill="none" stroke="black" d="M837.331,-890.946C814.267,-886.132 786.726,-880.184 762.038,-874.316 631.39,-843.268 478.77,-801.924 401.091,-780.514"/>
<polygon fill="none" stroke="black" points="401.661,-777.041 391.09,-777.754 399.799,-783.788 401.661,-777.041"/>
</g>
<!-- \\Slothsoft\\Schema\\Documentation\\XSDAttribute -->
<g id="node5" class="node"><title>\\Slothsoft\\Schema\\Documentation\\XSDAttribute</title>
<polygon fill="none" stroke="black" points="938.538,-865.316 840.538,-865.316 840.538,-829.316 938.538,-829.316 938.538,-865.316"/>
<text text-anchor="middle" x="889.538" y="-844.516" font-family="Courier,monospace" font-size="11.00">XSDAttribute</text>
</g>
<!-- \\Slothsoft\\Schema\\Documentation\\XSDAttribute&#45;&gt;\\Slothsoft\\Schema\\Documentation\\XSDNode -->
<g id="edge5" class="edge"><title>\\Slothsoft\\Schema\\Documentation\\XSDAttribute&#45;&gt;\\Slothsoft\\Schema\\Documentation\\XSDNode</title>
<path fill="none" stroke="black" d="M840.274,-840.057C738.962,-824.818 504.943,-789.619 401.166,-774.01"/>
<polygon fill="none" stroke="black" points="401.651,-770.543 391.242,-772.517 400.61,-777.465 401.651,-770.543"/>
</g>
<!-- \\Slothsoft\\Schema\\Documentation\\XSDCategory -->
<g id="node6" class="node"><title>\\Slothsoft\\Schema\\Documentation\\XSDCategory</title>
<polygon fill="none" stroke="black" points="935.038,-811.316 844.038,-811.316 844.038,-775.316 935.038,-775.316 935.038,-811.316"/>
<text text-anchor="middle" x="889.538" y="-790.516" font-family="Courier,monospace" font-size="11.00">XSDCategory</text>
</g>
<!-- \\Slothsoft\\Schema\\Documentation\\XSDCategory&#45;&gt;\\Slothsoft\\Schema\\Documentation\\XSDNode -->
<g id="edge6" class="edge"><title>\\Slothsoft\\Schema\\Documentation\\XSDCategory&#45;&gt;\\Slothsoft\\Schema\\Documentation\\XSDNode</title>
<path fill="none" stroke="black" d="M844.011,-791.084C744.875,-786.114 506.442,-774.159 401.3,-768.888"/>
<polygon fill="none" stroke="black" points="401.413,-765.389 391.25,-768.384 401.062,-772.38 401.413,-765.389"/>
</g>
<!-- \\Slothsoft\\Schema\\Documentation\\XSDElement -->
<g id="node7" class="node"><title>\\Slothsoft\\Schema\\Documentation\\XSDElement</title>
<polygon fill="none" stroke="black" points="931.538,-757.316 847.538,-757.316 847.538,-721.316 931.538,-721.316 931.538,-757.316"/>
<text text-anchor="middle" x="889.538" y="-736.516" font-family="Courier,monospace" font-size="11.00">XSDElement</text>
</g>
<!-- \\Slothsoft\\Schema\\Documentation\\XSDElement&#45;&gt;\\Slothsoft\\Schema\\Documentation\\XSDNode -->
<g id="edge7" class="edge"><title>\\Slothsoft\\Schema\\Documentation\\XSDElement&#45;&gt;\\Slothsoft\\Schema\\Documentation\\XSDNode</title>
<path fill="none" stroke="black" d="M847.176,-741.39C750.046,-746.26 507.59,-758.416 401.307,-763.745"/>
<polygon fill="none" stroke="black" points="400.965,-760.258 391.153,-764.254 401.316,-767.249 400.965,-760.258"/>
</g>
<!-- \\Slothsoft\\Schema\\Documentation\\XSDFile -->
<g id="node8" class="node"><title>\\Slothsoft\\Schema\\Documentation\\XSDFile</title>
<polygon fill="none" stroke="black" points="921.538,-703.316 857.538,-703.316 857.538,-667.316 921.538,-667.316 921.538,-703.316"/>
<text text-anchor="middle" x="889.538" y="-682.516" font-family="Courier,monospace" font-size="11.00">XSDFile</text>
</g>
<!-- \\Slothsoft\\Schema\\Documentation\\XSDGroup -->
<g id="node9" class="node"><title>\\Slothsoft\\Schema\\Documentation\\XSDGroup</title>
<polygon fill="none" stroke="black" points="925.038,-649.316 854.038,-649.316 854.038,-613.316 925.038,-613.316 925.038,-649.316"/>
<text text-anchor="middle" x="889.538" y="-628.516" font-family="Courier,monospace" font-size="11.00">XSDGroup</text>
</g>
<!-- \\Slothsoft\\Schema\\Documentation\\XSDGroup&#45;&gt;\\Slothsoft\\Schema\\Documentation\\XSDNode -->
<g id="edge8" class="edge"><title>\\Slothsoft\\Schema\\Documentation\\XSDGroup&#45;&gt;\\Slothsoft\\Schema\\Documentation\\XSDNode</title>
<path fill="none" stroke="black" d="M853.811,-638.279C828.34,-643.496 792.953,-650.97 762.038,-658.316 631.39,-689.365 478.77,-730.709 401.091,-752.119"/>
<polygon fill="none" stroke="black" points="399.799,-748.845 391.09,-754.879 401.661,-755.592 399.799,-748.845"/>
</g>
<!-- \\Slothsoft\\Schema\\Documentation\\XSDType -->
<g id="node11" class="node"><title>\\Slothsoft\\Schema\\Documentation\\XSDType</title>
<polygon fill="none" stroke="black" points="921.538,-595.316 857.538,-595.316 857.538,-559.316 921.538,-559.316 921.538,-595.316"/>
<text text-anchor="middle" x="889.538" y="-574.516" font-family="Courier,monospace" font-size="11.00">XSDType</text>
</g>
<!-- \\Slothsoft\\Schema\\Documentation\\XSDType&#45;&gt;\\Slothsoft\\Schema\\Documentation\\XSDNode -->
<g id="edge9" class="edge"><title>\\Slothsoft\\Schema\\Documentation\\XSDType&#45;&gt;\\Slothsoft\\Schema\\Documentation\\XSDNode</title>
<path fill="none" stroke="black" d="M857.506,-582.468C831.674,-587.106 794.078,-594.67 762.038,-604.316 627.584,-644.798 475.206,-710.002 398.957,-744.028"/>
<polygon fill="none" stroke="black" points="397.295,-740.937 389.599,-748.218 400.156,-747.326 397.295,-740.937"/>
</g>
<!-- \\Slothsoft\\Schema\\Exceptions\\SchemaVersioningNotFoundException -->
<g id="node12" class="node"><title>\\Slothsoft\\Schema\\Exceptions\\SchemaVersioningNotFoundException</title>
<polygon fill="none" stroke="black" points="1009.04,-327.316 770.038,-327.316 770.038,-291.316 1009.04,-291.316 1009.04,-327.316"/>
<text text-anchor="middle" x="889.538" y="-306.516" font-family="Courier,monospace" font-size="11.00">SchemaVersioningNotFoundException</text>
</g>
<!-- \\UnexpectedValueException -->
<g id="node17" class="node"><title>\\UnexpectedValueException</title>
<ellipse fill="none" stroke="black" cx="349.019" cy="-25.3164" rx="113.98" ry="18"/>
<text text-anchor="middle" x="349.019" y="-21.6164" font-family="Times New Roman,serif" font-size="14.00" fill="gray">\UnexpectedValueException</text>
</g>
<!-- \\Slothsoft\\Schema\\Exceptions\\SchemaVersioningNotFoundException&#45;&gt;\\UnexpectedValueException -->
<g id="edge10" class="edge"><title>\\Slothsoft\\Schema\\Exceptions\\SchemaVersioningNotFoundException&#45;&gt;\\UnexpectedValueException</title>
<path fill="none" stroke="black" d="M769.864,-293.519C767.128,-291.63 764.511,-289.567 762.038,-287.316 681.994,-214.442 781.444,-121.318 698.038,-52.3164 621.623,10.9018 500.685,4.32726 423.376,-8.64253"/>
<polygon fill="none" stroke="black" points="422.479,-5.24634 413.235,-10.4224 423.689,-12.141 422.479,-5.24634"/>
</g>
<!-- \\Slothsoft\\Schema\\DataDocument -->
<g id="node13" class="node"><title>\\Slothsoft\\Schema\\DataDocument</title>
<polygon fill="none" stroke="black" points="938.538,-273.316 840.538,-273.316 840.538,-237.316 938.538,-237.316 938.538,-273.316"/>
<text text-anchor="middle" x="889.538" y="-252.516" font-family="Courier,monospace" font-size="11.00">DataDocument</text>
</g>
<!-- \\Slothsoft\\Schema\\DataElement -->
<g id="node14" class="node"><title>\\Slothsoft\\Schema\\DataElement</title>
<polygon fill="none" stroke="black" points="935.038,-219.316 844.038,-219.316 844.038,-183.316 935.038,-183.316 935.038,-219.316"/>
<text text-anchor="middle" x="889.538" y="-198.516" font-family="Courier,monospace" font-size="11.00">DataElement</text>
</g>
</g>
</svg>
